<mxfile host="app.diagrams.net" modified="2024-04-26T08:20:45.190Z" agent="Mozilla/5.0 (Windows NT 10.0; Win64; x64) AppleWebKit/537.36 (KHTML, like Gecko) Chrome/124.0.0.0 Safari/537.36" etag="_jjXB5QjiJ5UMPSrSAIk" version="24.3.0" type="github">
  <diagram name="Page-1" id="6133507b-19e7-1e82-6fc7-422aa6c4b21f">
    <mxGraphModel dx="2074" dy="1098" grid="1" gridSize="10" guides="1" tooltips="1" connect="1" arrows="1" fold="1" page="1" pageScale="1" pageWidth="1100" pageHeight="850" background="none" math="0" shadow="0">
      <root>
        <mxCell id="0" />
        <mxCell id="1" parent="0" />
        <mxCell id="w2mA2PFcuxVug5NNmiOs-10" value="" style="edgeStyle=orthogonalEdgeStyle;rounded=0;orthogonalLoop=1;jettySize=auto;html=1;strokeColor=default;endArrow=none;endFill=0;entryX=0;entryY=0.5;entryDx=0;entryDy=0;" edge="1" parent="1" source="w2mA2PFcuxVug5NNmiOs-1" target="w2mA2PFcuxVug5NNmiOs-2">
          <mxGeometry relative="1" as="geometry">
            <mxPoint x="440" y="260" as="targetPoint" />
          </mxGeometry>
        </mxCell>
        <mxCell id="w2mA2PFcuxVug5NNmiOs-19" style="edgeStyle=orthogonalEdgeStyle;rounded=0;orthogonalLoop=1;jettySize=auto;html=1;entryX=0;entryY=0.5;entryDx=0;entryDy=0;strokeColor=default;align=center;verticalAlign=middle;fontFamily=Helvetica;fontSize=11;fontColor=default;labelBackgroundColor=default;endArrow=none;endFill=0;" edge="1" parent="1" source="w2mA2PFcuxVug5NNmiOs-1" target="w2mA2PFcuxVug5NNmiOs-4">
          <mxGeometry relative="1" as="geometry">
            <Array as="points">
              <mxPoint x="140" y="200" />
            </Array>
          </mxGeometry>
        </mxCell>
        <mxCell id="w2mA2PFcuxVug5NNmiOs-1" value="User" style="swimlane;whiteSpace=wrap;html=1;" vertex="1" parent="1">
          <mxGeometry x="40" y="290" width="200" height="80" as="geometry">
            <mxRectangle x="60" y="140" width="70" height="30" as="alternateBounds" />
          </mxGeometry>
        </mxCell>
        <mxCell id="w2mA2PFcuxVug5NNmiOs-11" style="edgeStyle=orthogonalEdgeStyle;rounded=0;orthogonalLoop=1;jettySize=auto;html=1;endArrow=none;endFill=0;entryX=0;entryY=0.5;entryDx=0;entryDy=0;" edge="1" parent="1" source="w2mA2PFcuxVug5NNmiOs-2" target="w2mA2PFcuxVug5NNmiOs-3">
          <mxGeometry relative="1" as="geometry">
            <mxPoint x="600" y="330" as="targetPoint" />
          </mxGeometry>
        </mxCell>
        <mxCell id="w2mA2PFcuxVug5NNmiOs-20" style="edgeStyle=orthogonalEdgeStyle;rounded=0;orthogonalLoop=1;jettySize=auto;html=1;entryX=0.5;entryY=1;entryDx=0;entryDy=0;strokeColor=default;align=center;verticalAlign=middle;fontFamily=Helvetica;fontSize=11;fontColor=default;labelBackgroundColor=default;endArrow=none;endFill=0;" edge="1" parent="1" source="w2mA2PFcuxVug5NNmiOs-2" target="w2mA2PFcuxVug5NNmiOs-4">
          <mxGeometry relative="1" as="geometry" />
        </mxCell>
        <mxCell id="w2mA2PFcuxVug5NNmiOs-2" value="Investment" style="swimlane;whiteSpace=wrap;html=1;" vertex="1" parent="1">
          <mxGeometry x="340" y="290" width="200" height="80" as="geometry">
            <mxRectangle x="60" y="140" width="70" height="30" as="alternateBounds" />
          </mxGeometry>
        </mxCell>
        <mxCell id="w2mA2PFcuxVug5NNmiOs-3" value="Investment Data" style="swimlane;whiteSpace=wrap;html=1;" vertex="1" parent="1">
          <mxGeometry x="640" y="290" width="200" height="80" as="geometry">
            <mxRectangle x="60" y="140" width="70" height="30" as="alternateBounds" />
          </mxGeometry>
        </mxCell>
        <mxCell id="w2mA2PFcuxVug5NNmiOs-12" value="Key: Category&lt;div&gt;Value: Data&lt;/div&gt;" style="text;html=1;align=left;verticalAlign=middle;resizable=0;points=[];autosize=1;strokeColor=none;fillColor=none;" vertex="1" parent="w2mA2PFcuxVug5NNmiOs-3">
          <mxGeometry x="10" y="30" width="100" height="40" as="geometry" />
        </mxCell>
        <mxCell id="w2mA2PFcuxVug5NNmiOs-4" value="Investment Layout" style="swimlane;whiteSpace=wrap;html=1;" vertex="1" parent="1">
          <mxGeometry x="340" y="160" width="200" height="80" as="geometry">
            <mxRectangle x="60" y="140" width="70" height="30" as="alternateBounds" />
          </mxGeometry>
        </mxCell>
        <mxCell id="w2mA2PFcuxVug5NNmiOs-17" style="edgeStyle=orthogonalEdgeStyle;rounded=0;orthogonalLoop=1;jettySize=auto;html=1;entryX=0.5;entryY=1;entryDx=0;entryDy=0;endArrow=none;endFill=0;" edge="1" parent="1" source="w2mA2PFcuxVug5NNmiOs-5" target="w2mA2PFcuxVug5NNmiOs-7">
          <mxGeometry relative="1" as="geometry" />
        </mxCell>
        <mxCell id="w2mA2PFcuxVug5NNmiOs-5" value="Issuer" style="swimlane;whiteSpace=wrap;html=1;" vertex="1" parent="1">
          <mxGeometry x="340" y="560" width="200" height="80" as="geometry">
            <mxRectangle x="60" y="140" width="70" height="30" as="alternateBounds" />
          </mxGeometry>
        </mxCell>
        <mxCell id="w2mA2PFcuxVug5NNmiOs-21" style="edgeStyle=orthogonalEdgeStyle;rounded=0;orthogonalLoop=1;jettySize=auto;html=1;entryX=0.25;entryY=1;entryDx=0;entryDy=0;strokeColor=default;align=center;verticalAlign=middle;fontFamily=Helvetica;fontSize=11;fontColor=default;labelBackgroundColor=default;endArrow=none;endFill=0;" edge="1" parent="1" source="w2mA2PFcuxVug5NNmiOs-6" target="w2mA2PFcuxVug5NNmiOs-1">
          <mxGeometry relative="1" as="geometry" />
        </mxCell>
        <mxCell id="w2mA2PFcuxVug5NNmiOs-6" value="eProcessing" style="swimlane;whiteSpace=wrap;html=1;" vertex="1" parent="1">
          <mxGeometry x="40" y="560" width="200" height="80" as="geometry">
            <mxRectangle x="60" y="140" width="70" height="30" as="alternateBounds" />
          </mxGeometry>
        </mxCell>
        <mxCell id="w2mA2PFcuxVug5NNmiOs-18" style="edgeStyle=orthogonalEdgeStyle;rounded=0;orthogonalLoop=1;jettySize=auto;html=1;entryX=0.5;entryY=1;entryDx=0;entryDy=0;strokeColor=default;align=center;verticalAlign=middle;fontFamily=Helvetica;fontSize=11;fontColor=default;labelBackgroundColor=default;endArrow=none;endFill=0;" edge="1" parent="1" source="w2mA2PFcuxVug5NNmiOs-7" target="w2mA2PFcuxVug5NNmiOs-1">
          <mxGeometry relative="1" as="geometry" />
        </mxCell>
        <mxCell id="w2mA2PFcuxVug5NNmiOs-7" value="Advertisement" style="swimlane;whiteSpace=wrap;html=1;" vertex="1" parent="1">
          <mxGeometry x="340" y="400" width="200" height="80" as="geometry">
            <mxRectangle x="60" y="140" width="70" height="30" as="alternateBounds" />
          </mxGeometry>
        </mxCell>
        <mxCell id="w2mA2PFcuxVug5NNmiOs-22" style="edgeStyle=orthogonalEdgeStyle;rounded=0;orthogonalLoop=1;jettySize=auto;html=1;entryX=1;entryY=0.25;entryDx=0;entryDy=0;strokeColor=default;align=center;verticalAlign=middle;fontFamily=Helvetica;fontSize=11;fontColor=default;labelBackgroundColor=default;endArrow=none;endFill=0;" edge="1" parent="1" source="w2mA2PFcuxVug5NNmiOs-13" target="w2mA2PFcuxVug5NNmiOs-2">
          <mxGeometry relative="1" as="geometry" />
        </mxCell>
        <mxCell id="w2mA2PFcuxVug5NNmiOs-13" value="Banking API" style="swimlane;whiteSpace=wrap;html=1;" vertex="1" parent="1">
          <mxGeometry x="640" y="160" width="200" height="80" as="geometry">
            <mxRectangle x="60" y="140" width="70" height="30" as="alternateBounds" />
          </mxGeometry>
        </mxCell>
      </root>
    </mxGraphModel>
  </diagram>
</mxfile>
